HIERARCHY
ROOT hips
{
  OFFSET 0 10.6860622 2.3727825e-15
  CHANNELS 6 Xposition Yposition Zposition Yrotation Xrotation Zrotation
  JOINT leftUpperLeg
  {
    OFFSET 0.6642549969 -0.9402397400000004 0
    CHANNELS 3 Yrotation Xrotation Zrotation
    JOINT leftLowerLeg
    {
      OFFSET 0 -3.997221335632195 0
      CHANNELS 3 Yrotation Xrotation Zrotation
      JOINT leftFoot
      {
        OFFSET -0.13777839790000004 -4.6145792000000005 -0.22186036399999998
        CHANNELS 3 Yrotation Xrotation Zrotation
        JOINT leftToes
        {
          OFFSET -0.03777410834999995 -0.9130806927000008 0.85230013
          CHANNELS 3 Yrotation Xrotation Zrotation
          End Site
          {
            OFFSET -0.03777410834999995 -0.9130806927000008 0.85230013
          }
        }
      }
    }
  }
  JOINT rightUpperLeg
  {
    OFFSET -0.6642778626 -0.9402397400000004 0
    CHANNELS 3 Yrotation Xrotation Zrotation
    JOINT rightLowerLeg
    {
      OFFSET 0 -3.997221452859387 0
      CHANNELS 3 Yrotation Xrotation Zrotation
      JOINT rightFoot
      {
        OFFSET 0.1377926176 -4.6145792000000005 -0.22185782299999995
        CHANNELS 3 Yrotation Xrotation Zrotation
        JOINT rightToes
        {
          OFFSET 0.037780746850000047 -0.9130806927000008 0.85230167
          CHANNELS 3 Yrotation Xrotation Zrotation
          End Site
          {
            OFFSET 0.037780746850000047 -0.9130806927000008 0.85230167
          }
        }
      }
    }
  }
  JOINT spine
  {
    OFFSET 0 0.13988381660000015 0
    CHANNELS 3 Yrotation Xrotation Zrotation
    JOINT chest
    {
      OFFSET 0 0.6191039003973773 0
      CHANNELS 3 Yrotation Xrotation Zrotation
      JOINT upperChest
      {
        OFFSET 0 0.9855186130586943 0
        CHANNELS 3 Yrotation Xrotation Zrotation
        JOINT leftShoulder
        {
          OFFSET 0.1807663869 1.5087829790000005 0
          CHANNELS 3 Yrotation Xrotation Zrotation
          JOINT leftUpperArm
          {
            OFFSET 0.5985063006419806 0 0
            CHANNELS 3 Yrotation Xrotation Zrotation
            JOINT leftLowerArm
            {
              OFFSET 2.2993332369501065 0 0
              CHANNELS 3 Yrotation Xrotation Zrotation
              JOINT leftHand
              {
                OFFSET 2.395047042602395 0 0
                CHANNELS 3 Yrotation Xrotation Zrotation
                JOINT leftIndexProximal
                {
                  OFFSET 0.5766295810000004 0.04556643899499946 0.17265095988184
                  CHANNELS 3 Yrotation Xrotation Zrotation
                  JOINT leftIndexIntermediate
                  {
                    OFFSET 0.2957229000000008 -0.019352197700001517 -0.007932640616999987
                    CHANNELS 3 Yrotation Xrotation Zrotation
                    JOINT leftIndexDistal
                    {
                      OFFSET 0.19008243099999922 -0.012484908149998475 -0.002786250786000012
                      CHANNELS 3 Yrotation Xrotation Zrotation
                      End Site
                      {
                        OFFSET 0.19008243099999922 -0.012484908149998475 -0.002786250786000012
                      }
                    }
                  }
                }
                JOINT leftMiddleProximal
                {
                  OFFSET 0.5834975091000001 0.0524350405149987 0.02204081888183999
                  CHANNELS 3 Yrotation Xrotation Zrotation
                  JOINT leftMiddleIntermediate
                  {
                    OFFSET 0.33880573540000003 -0.019871473270000717 -0.00000971183179999946
                    CHANNELS 3 Yrotation Xrotation Zrotation
                    JOINT leftMiddleDistal
                    {
                      OFFSET 0.20676022730000088 -0.012221336379999448 0.0001471936708000235
                      CHANNELS 3 Yrotation Xrotation Zrotation
                      End Site
                      {
                        OFFSET 0.20676022730000088 -0.012221336379999448 0.0001471936708000235
                      }
                    }
                  }
                }
                JOINT leftLittleProximal
                {
                  OFFSET 0.5344154683999995 -0.012880921405001189 -0.24414037221816004
                  CHANNELS 3 Yrotation Xrotation Zrotation
                  JOINT leftLittleIntermediate
                  {
                    OFFSET 0.21758961730000093 -0.011650919939999227 0.011893592810000034
                    CHANNELS 3 Yrotation Xrotation Zrotation
                    JOINT leftLittleDistal
                    {
                      OFFSET 0.1475273964999999 -0.008152365682999818 0.006001092492999946
                      CHANNELS 3 Yrotation Xrotation Zrotation
                      End Site
                      {
                        OFFSET 0.1475273964999999 -0.008152365682999818 0.006001092492999946
                      }
                    }
                  }
                }
                JOINT leftRingProximal
                {
                  OFFSET 0.5799399463000003 0.026911854694997794 -0.12150566991816003
                  CHANNELS 3 Yrotation Xrotation Zrotation
                  JOINT leftRingIntermediate
                  {
                    OFFSET 0.26167887460000006 -0.013480186499999602 0.010996293000000053
                    CHANNELS 3 Yrotation Xrotation Zrotation
                    JOINT leftRingDistal
                    {
                      OFFSET 0.17667108799999987 -0.008990287899999228 0.0055541023999999065
                      CHANNELS 3 Yrotation Xrotation Zrotation
                      End Site
                      {
                        OFFSET 0.17667108799999987 -0.008990287899999228 0.0055541023999999065
                      }
                    }
                  }
                }
                JOINT leftThumbProximal
                {
                  OFFSET 0.11018806699999972 -0.09448718900500053 0.17047963138184
                  CHANNELS 3 Yrotation Xrotation Zrotation
                  JOINT leftThumbIntermediate
                  {
                    OFFSET 0.31062601459999983 -0.08126270900000132 0.15443142000000007
                    CHANNELS 3 Yrotation Xrotation Zrotation
                    JOINT leftThumbDistal
                    {
                      OFFSET 0.21627175790000086 -0.08833193599999878 0.018771167799999988
                      CHANNELS 3 Yrotation Xrotation Zrotation
                      End Site
                      {
                        OFFSET 0.21627175790000086 -0.08833193599999878 0.018771167799999988
                      }
                    }
                  }
                }
              }
            }
          }
        }
        JOINT neck
        {
          OFFSET 0 1.5463305265074576 0
          CHANNELS 3 Yrotation Xrotation Zrotation
          JOINT head
          {
            OFFSET 0 0.8456443600000344 0
            CHANNELS 3 Yrotation Xrotation Zrotation
            JOINT leftEye
            {
              OFFSET 0.30408573140000006 0.5104519199999995 0.1276382305
              CHANNELS 3 Yrotation Xrotation Zrotation
              End Site
              {
                OFFSET 0.30408573140000006 0.5104519199999995 0.1276382305
              }
            }
            JOINT rightEye
            {
              OFFSET -0.30409491089999996 0.5104519199999995 0.1276379445
              CHANNELS 3 Yrotation Xrotation Zrotation
              End Site
              {
                OFFSET -0.30409491089999996 0.5104519199999995 0.1276379445
              }
            }
            JOINT jaw
            {
              OFFSET -3.155239131000001e-7 -0.11984121820000082 0.60178107
              CHANNELS 3 Yrotation Xrotation Zrotation
              End Site
              {
                OFFSET -3.155239131000001e-7 -0.11984121820000082 0.60178107
              }
            }
          }
        }
        JOINT rightShoulder
        {
          OFFSET -0.1807303465 1.5087829790000005 0
          CHANNELS 3 Yrotation Xrotation Zrotation
          JOINT rightUpperArm
          {
            OFFSET -0.5985063796536958 0 0
            CHANNELS 3 Yrotation Xrotation Zrotation
            JOINT rightLowerArm
            {
              OFFSET -2.2993322059002854 0 0
              CHANNELS 3 Yrotation Xrotation Zrotation
              JOINT rightHand
              {
                OFFSET -2.395045314457259 0 0
                CHANNELS 3 Yrotation Xrotation Zrotation
                JOINT rightIndexProximal
                {
                  OFFSET -0.5764487688300002 0.0441371204405987 0.17361932004999997
                  CHANNELS 3 Yrotation Xrotation Zrotation
                  JOINT rightIndexIntermediate
                  {
                    OFFSET -0.29573011380000047 -0.01934826376999843 -0.007698921482999974
                    CHANNELS 3 Yrotation Xrotation Zrotation
                    JOINT rightIndexDistal
                    {
                      OFFSET -0.19008373999999884 -0.012503266380000655 -0.0026365778999999897
                      CHANNELS 3 Yrotation Xrotation Zrotation
                      End Site
                      {
                        OFFSET -0.19008373999999884 -0.012503266380000655 -0.0026365778999999897
                      }
                    }
                  }
                }
                JOINT rightMiddleProximal
                {
                  OFFSET -0.5834852037300005 0.05211639405060153 0.02307162440000001
                  CHANNELS 3 Yrotation Xrotation Zrotation
                  JOINT rightMiddleIntermediate
                  {
                    OFFSET -0.33880114510000003 -0.019952774050000954 0.0002455003561999819
                    CHANNELS 3 Yrotation Xrotation Zrotation
                    JOINT rightMiddleDistal
                    {
                      OFFSET -0.20675694929999955 -0.012273788999999091 0.00030209124000002766
                      CHANNELS 3 Yrotation Xrotation Zrotation
                      End Site
                      {
                        OFFSET -0.20675694929999955 -0.012273788999999091 0.00030209124000002766
                      }
                    }
                  }
                }
                JOINT rightLittleProximal
                {
                  OFFSET -0.5346811737299992 -0.011214256288399227 -0.24363941305000003
                  CHANNELS 3 Yrotation Xrotation Zrotation
                  JOINT rightLittleIntermediate
                  {
                    OFFSET -0.21757715980000092 -0.011771559690000988 0.01201554387
                    CHANNELS 3 Yrotation Xrotation Zrotation
                    JOINT rightLittleDistal
                    {
                      OFFSET -0.1475201849000004 -0.00822055339600003 0.006082065407000015
                      CHANNELS 3 Yrotation Xrotation Zrotation
                      End Site
                      {
                        OFFSET -0.1475201849000004 -0.00822055339600003 0.006082065407000015
                      }
                    }
                  }
                }
                JOINT rightRingProximal
                {
                  OFFSET -0.5800810755299999 0.027657985680600072 -0.12066365025000003
                  CHANNELS 3 Yrotation Xrotation Zrotation
                  JOINT rightRingIntermediate
                  {
                    OFFSET -0.26166445029999974 -0.013623118409999302 0.011164098990000045
                    CHANNELS 3 Yrotation Xrotation Zrotation
                    JOINT rightRingDistal
                    {
                      OFFSET -0.17666387530000027 -0.009072900100000503 0.005668185599999959
                      CHANNELS 3 Yrotation Xrotation Zrotation
                      End Site
                      {
                        OFFSET -0.17666387530000027 -0.009072900100000503 0.005668185599999959
                      }
                    }
                  }
                }
                JOINT rightThumbProximal
                {
                  OFFSET -0.10997596379000074 -0.09577489355940072 0.16989765924999997
                  CHANNELS 3 Yrotation Xrotation Zrotation
                  JOINT rightThumbIntermediate
                  {
                    OFFSET -0.31036620999999986 -0.08229339117999834 0.15440884469999996
                    CHANNELS 3 Yrotation Xrotation Zrotation
                    JOINT rightThumbDistal
                    {
                      OFFSET -0.21631306399999906 -0.08825326400000111 0.018656797720000014
                      CHANNELS 3 Yrotation Xrotation Zrotation
                      End Site
                      {
                        OFFSET -0.21631306399999906 -0.08825326400000111 0.018656797720000014
                      }
                    }
                  }
                }
              }
            }
          }
        }
      }
    }
  }
}
MOTION
Frames: 9
Frame Time: 0.03333333333333333
0 11.682712981546562 0 0 0 0 0 0 -5.826343164929014 -0.3712483961610101 -3.6333298826370974 5.838118207697276 0 0 0 0 0 0 0 0 5.826343164929014 0.3712483961610101 -3.6333298826370974 -5.838118207697276 0 0 0 0 0 0 0 -4.610651315171937 0 0 3.0831277533083026 0 0 0 0 0 1.5275236235667615 0 0 0 0 0 0 0 0 0 0 0 0 0 0 0 0 0 0 0 0 0 0 0 0 0 0 0 0 0 0 0 0 0 0 0 0 0 0 0 0 0 0 0 0 0 0 0 0 0 0 0 0 0 0 0 0 1.5275236235667615 0 0 0 0 0 0 0 0 0 0 0 0 0 0 1.5275236235667615 0 0 0 0 0 0 0 0 0 0 0 0 0 0 0 0 0 0 0 0 0 0 0 0 0 0 0 0 0 0 0 0 0 0 0 0 0 0 0 0 0 0 0 0 0 0 0 0 0 0 0 0 0 0 0
-0.03627804652789979 -10.545644700461677 6.455087218822987 179.73040221425705 89.74743577378511 0 0.0010167359640897557 -2.0246460757975084 2.138972806052722 10.156331604169951 71.6236894164007 14.507463619213613 8.540228279121168 47.3011587343514 12.595297254853064 0 0 0 -0.22409963575475272 -1.752324690645036 0.4503466940136941 -153.06283613871798 75.41686653657577 -157.23002878645616 1.0261126860416414 23.061227279239105 -3.3444482814421175 0 0 0 -0.22330760365480964 -49.99179173566028 0.24122139964280814 0.10587775132258814 20.903423634904918 0.7497954943158166 0 0 0 13.943656747646303 -36.96654367607569 -3.3454283775342195 -26.142353795034804 -30.70576389181541 -48.44891973416255 -119.34279447299623 52.448131358356086 -6.593643765179272 57.23206692923304 -49.29636289819789 -44.700004074570735 0 0 0 0 0 0 0 0 0 0 0 0 0 0 0 0 0 0 0 0 0 0 0 0 0 0 0 0 0 0 0 0 0 0 0 0 0 0 0 0 0 0 0 0 0 0 -6.048435317682213 0 0 20.922087151372253 0 0 0 0 0 0 0 0 0 0 -41.4477085427399 -11.635879955264098 -8.999528574113508 36.64370814219606 -31.86558449178194 48.54480382576473 127.40053247556598 -9.294772958535303 15.114103940851805 -15.351154028800542 -30.237939570683224 -32.976617681156235 0 0 0 0 0 0 0 0 0 0 0 0 0 0 0 0 0 0 0 0 0 0 0 0 0 0 0 0 0 0 0 0 0 0 0 0 0 0 0 0 0 0 0 0 0
-0.03627804652789979 -10.545644700461677 6.455087218822987 179.73040221425705 89.74743577378511 0 0.0010167359640897557 -2.0246460757975084 2.138973873192369 10.156340577799453 71.62370024914644 14.507471897974748 8.540229026976895 47.3011587343514 12.595298353005346 0 0 0 -0.22409963575475272 -1.752324690645036 0.45034770831292587 -153.06282231365364 75.41686653657577 -157.2300154116791 1.0261126860416414 23.061227279239105 -3.3444482814421175 0 0 0 -0.22655628868280198 -50.68397628274822 0.2454521241252916 0.10694961534811444 22.36231898243445 0.7527311796009893 0 0 0 14.010580345772462 -37.73299948082578 -3.1217882379001267 -26.1423609263077 -30.705759919855748 -48.44890818218847 -119.34279447299623 52.448131358356086 -6.593643765179272 57.509881028697585 -49.636378244657024 -44.75033153989358 0 0 0 0 0 0 0 0 0 0 0 0 0 0 0 0 0 0 0 0 0 0 0 0 0 0 0 0 0 0 0 0 0 0 0 0 0 0 0 0 0 0 0 0 0 0 -3.5992883112470144 0 0 19.84610630203371 0 0 0 0 0 0 0 0 0 0 -41.49413768013134 -12.475957871876382 -8.63237243527505 36.643707315753765 -31.86558851290416 48.54480382576473 127.40053247556598 -9.294772958535303 15.114103940851805 -15.405745382512313 -30.51639556553686 -33.101598154282186 0 0 0 0 0 0 0 0 0 0 0 0 0 0 0 0 0 0 0 0 0 0 0 0 0 0 0 0 0 0 0 0 0 0 0 0 0 0 0 0 0 0 0 0 0
-0.03627804652789979 -10.545644700461677 6.455087218822987 179.73040221425705 89.74743577378511 0 0.0010167359640897557 -2.0246460757975084 2.138973873192369 10.156340577799453 71.62370024914644 14.507471897974748 8.540230272001416 47.301163770288724 12.595300679844334 0 0 0 -0.22409963575475272 -1.752324690645036 0.4503466940136941 -153.06282231365364 75.41686653657577 -157.2300154116791 1.0261126860416414 23.06122913509372 -3.3444482814421175 0 0 0 -0.229938623428077 -51.37639811722826 0.24981192276193867 0.10811717768504403 23.82334855524023 0.7557323634163832 0 0 0 14.074407970837033 -38.49999335826103 -2.896828311559536 -26.142359110728542 -30.705767863775222 -48.44891676168812 -119.34279966100812 52.448131358356086 -6.593642321250647 57.79014655724668 -49.97626715672562 -44.80358488809668 0 0 0 0 0 0 0 0 0 0 0 0 0 0 0 0 0 0 0 0 0 0 0 0 0 0 0 0 0 0 0 0 0 0 0 0 0 0 0 0 0 0 0 0 0 0 -1.139915417225785 0 0 18.769269352072325 0 0 0 0 0 0 0 0 0 0 -41.54628242461192 -13.316210025290825 -8.263070957776884 36.64371054215112 -31.86558449178194 48.54480382576473 127.40053247556598 -9.294772958535303 15.114103940851805 -15.459790835488086 -30.794963744719855 -33.226631013213265 0 0 0 0 0 0 0 0 0 0 0 0 0 0 0 0 0 0 0 0 0 0 0 0 0 0 0 0 0 0 0 0 0 0 0 0 0 0 0 0 0 0 0 0 0
-0.03627804652789979 -10.545644700461677 6.455087218822987 179.73040221425705 89.74743577378511 0 0.0010167359640897557 -2.0246460757975084 2.138973873192369 10.156340577799453 71.62370024914644 14.507471897974748 8.540230272001416 47.3011587343514 12.595299581691764 0 0 0 -0.22409963575475272 -1.752324690645036 0.4503466940136941 -153.06282231365364 75.41686653657577 -157.2300154116791 1.0261126860416414 23.061227279239105 -3.3444482814421175 0 0 0 -0.2371259558545486 -52.76170016089086 0.25894420764168485 0.11075613864569143 26.749943527059603 0.7619549415187075 0 0 0 14.19245089376084 -40.035301280549795 -2.442552080554454 -26.142359110728542 -30.705767863775222 -48.44891676168812 -119.34279447299623 52.448131358356086 -6.593643765179272 58.358369164927964 -50.655617237119806 -44.91916897215997 0 0 0 0 0 0 0 0 0 0 0 0 0 0 0 0 0 0 0 0 0 0 0 0 0 0 0 0 0 0 0 0 0 0 0 0 0 0 0 0 0 0 0 0 0 0 3.800617638665653 0 0 16.613779402112836 0 0 0 0 0 0 0 0 0 0 -41.668069129631924 -14.996657061432225 -7.517487170430491 36.64371054215112 -31.86558449178194 48.54480382576473 127.40053247556598 -9.294772958535303 15.114103940851805 -15.566229964036271 -31.35245509677269 -33.47690582676387 0 0 0 0 0 0 0 0 0 0 0 0 0 0 0 0 0 0 0 0 0 0 0 0 0 0 0 0 0 0 0 0 0 0 0 0 0 0 0 0 0 0 0 0 0
-0.03627804652789979 -10.545644700461677 6.455087218822987 179.73040221425705 89.74743577378511 0 0.0010167359640897557 -2.0246460757975084 2.138973873192369 10.156340577799453 71.62370024914644 14.507471897974748 8.540230272001416 47.3011587343514 12.595299581691764 0 0 0 -0.22409963575475272 -1.752324690645036 0.4503466940136941 -153.06282231365364 75.41686653657577 -157.2300154116791 1.0261126860416414 23.061227279239105 -3.3444482814421175 0 0 0 -0.24094615117717044 -53.454500074786296 0.26373099170767245 0.11223815104514488 28.214556634400132 0.7651882354547531 0 0 0 14.24646803540006 -40.80342597852245 -2.213016055184877 -26.142359110728542 -30.705767863775222 -48.44891676168812 -119.34279416939884 52.4481257550585 -6.593645904886883 58.64638188827901 -50.995020463666805 -44.98157184127005 0 0 0 0 0 0 0 0 0 0 0 0 0 0 0 0 0 0 0 0 0 0 0 0 0 0 0 0 0 0 0 0 0 0 0 0 0 0 0 0 0 0 0 0 0 0 6.277230767639764 0 0 15.535510413401978 0 0 0 0 0 0 0 0 0 0 -41.737870877455265 -15.836561675361693 -7.140926678038842 36.64371054215112 -31.86558449178194 48.54480382576473 127.40053247556598 -9.294772958535303 15.114103940851805 -15.618619611387867 -31.631357538206995 -33.602149050741886 0 0 0 0 0 0 0 0 0 0 0 0 0 0 0 0 0 0 0 0 0 0 0 0 0 0 0 0 0 0 0 0 0 0 0 0 0 0 0 0 0 0 0 0 0
-0.03627804652789979 -10.545644700461677 6.455087218822987 179.73040221425705 89.74743577378511 0 0.0010167359640897557 -2.0246460757975084 2.138972806052722 10.156340577799453 71.62370024914644 14.507471897974748 8.540229026976895 47.3011587343514 12.595298353005346 0 0 0 -0.22409963575475272 -1.752324690645036 0.4503466940136941 -153.06282231365364 75.41686653657577 -157.2300154116791 1.0261126860416414 23.061227279239105 -3.3444482814421175 0 0 0 -0.2449290102035678 -54.14732123926585 0.26867638252706233 0.11383715788781769 29.679410067098637 0.7685129105601131 0 0 0 14.297008733718357 -41.57174422860647 -1.9817277024509983 -26.14235736067136 -30.70576389181541 -48.44891115466239 -119.34279447299623 52.448131358356086 -6.593643765179272 58.937138344290354 -51.33423502975708 -45.0471873483395 0 0 0 0 0 0 0 0 0 0 0 0 0 0 0 0 0 0 0 0 0 0 0 0 0 0 0 0 0 0 0 0 0 0 0 0 0 0 0 0 0 0 0 0 0 0 8.755001045051383 0 0 14.457145912788024 0 0 0 0 0 0 0 0 0 0 -41.81373606941935 -16.67605571262763 -6.761658155902012 36.64370814219606 -31.8655804706599 48.544806487884934 127.40053247556598 -9.294773823667747 15.114103940851805 -15.670442744798416 -31.910370571864863 -33.72748535995075 0 0 0 0 0 0 0 0 0 0 0 0 0 0 0 0 0 0 0 0 0 0 0 0 0 0 0 0 0 0 0 0 0 0 0 0 0 0 0 0 0 0 0 0 0
-0.03627804652789979 -10.545644700461677 6.455087218822987 179.73040221425705 89.74743577378511 0 0.0010167359640897557 -2.0246460757975084 2.138973873192369 10.156340577799453 71.62370024914644 14.507471897974748 8.540230272001416 47.3011587343514 12.595299581691764 0 0 0 -0.22409963575475272 -1.752324690645036 0.4503466940136941 -153.06282231365364 75.41686653657577 -157.2300154116791 1.0261126860416414 23.061227279239105 -3.3444482814421175 0 0 0 -0.2534220289602177 -55.532831289810346 0.27908292234344767 0.11741129291204143 32.607909893514154 0.7754603752884197 0 0 0 14.38722267453938 -43.10863144929384 -1.5133898232816907 -26.142359110728542 -30.705767863775222 -48.44891676168812 -119.34279447299623 52.448131358356086 -6.593643765179272 59.52712624336121 -52.011990832591536 -45.188301760751195 0 0 0 0 0 0 0 0 0 0 0 0 0 0 0 0 0 0 0 0 0 0 0 0 0 0 0 0 0 0 0 0 0 0 0 0 0 0 0 0 0 0 0 0 0 0 13.704754281713946 0 0 12.300897234363395 0 0 0 0 0 0 0 0 0 0 -41.984057969425166 -18.353230448079014 -5.994415546081602 36.64371054215112 -31.86558449178194 48.54480382576473 127.40053247556598 -9.294772958535303 15.114103940851805 -15.772400507037041 -32.468649822613436 -33.97839352125243 0 0 0 0 0 0 0 0 0 0 0 0 0 0 0 0 0 0 0 0 0 0 0 0 0 0 0 0 0 0 0 0 0 0 0 0 0 0 0 0 0 0 0 0 0
-0.03627804652789979 -10.545644700461677 6.455087218822987 179.73040221425705 89.74743577378511 0 0.0010167359640897557 -2.0246460757975084 2.138973873192369 10.156340577799453 71.62370024914644 14.507471897974748 8.540230272001416 47.3011587343514 12.595299581691764 0 0 0 -0.22409963575475272 -1.752324690645036 0.4503466940136941 -153.06282231365364 75.41686653657577 -157.2300154116791 1.0261126860416414 23.061227279239105 -3.3444482814421175 0 0 0 -0.2579509691711588 -56.22541811997253 0.2845633487310805 0.11940289529890545 34.07060563337808 0.7791011828649543 0 0 0 14.426642520265307 -43.87702113719935 -1.276069030648929 -26.142359110728542 -30.705767863775222 -48.44891676168812 -119.34279416939884 52.4481257550585 -6.593645904886883 59.82648294906863 -52.35048441082897 -45.26393394562558 0 0 0 0 0 0 0 0 0 0 0 0 0 0 0 0 0 0 0 0 0 0 0 0 0 0 0 0 0 0 0 0 0 0 0 0 0 0 0 0 0 0 0 0 0 0 16.172139945826785 0 0 11.22339187972962 0 0 0 0 0 0 0 0 0 0 -42.07871689486848 -19.19060610908395 -5.6061278141970625 36.64371054215112 -31.86558449178194 48.54480382576473 127.40053247556598 -9.294772958535303 15.114103940851805 -15.822529086898564 -32.74791469373085 -34.10397314697877 0 0 0 0 0 0 0 0 0 0 0 0 0 0 0 0 0 0 0 0 0 0 0 0 0 0 0 0 0 0 0 0 0 0 0 0 0 0 0 0 0 0 0 0 0
